<svg xmlns="http://www.w3.org/2000/svg" width="1600" height="400" viewBox="0 0 1600 400">
  <svg x="0" y="0" width="800" height="400" viewBox="0 0 440 440">
    <circle cx="220" cy="220" r="220" fill="white" />
    <circle cx="220" cy="220" r="210" fill="black" />
    <circle cx="220" cy="220" r="200" fill="white" />
    <g>
      <path d="M220,220 L271.76, 26.81 A200,200 0 0,1 361.42, 78.58 Z" fill="white" />
      <path d="M220,220 L361.42, 78.58 A200,200 0 0,1 413.19, 168.24 Z" fill="black" />
      <path d="M220,220 L413.19, 168.24 A200,200 0 0,1 413.19, 271.76 Z" fill="white" />
      <path d="M220,220 L413.19, 271.76 A200,200 0 0,1 361.42, 361.42 Z" fill="black" />
      <path d="M220,220 L361.42, 361.42 A200,200 0 0,1 271.76, 413.19 Z" fill="white" />
      <path d="M220,220 L271.76, 413.19 A200,200 0 0,1 168.24, 413.19 Z" fill="black" />
      <path d="M220,220 L168.24, 413.19 A200,200 0 0,1 78.58, 361.42 Z" fill="white" />
      <path d="M220,220 L78.58, 361.42 A200,200 0 0,1 26.81, 271.76 Z" fill="black" />
      <path d="M220,220 L26.81, 271.76 A200,200 0 0,1 26.81, 168.24 Z" fill="white" />
      <path d="M220,220 L26.81, 168.24 A200,200 0 0,1 78.58, 78.58 Z" fill="black" />
      <path d="M220,220 L78.58, 78.58 A200,200 0 0,1 168.24, 26.81 Z" fill="white" />
      <path d="M220,220 L168.24, 26.81 A200,200 0 0,1 271.76, 26.81 Z" fill="black" />
    </g>
    <circle cx="220" cy="220" r="140" fill="black" />
    <circle cx="220" cy="220" r="120" fill="white" />
    <svg xmlns="http://www.w3.org/2000/svg" viewBox="0 0 784.37 1277.39" x="154" y="110" width="132" height="220">
      <g id="Layer_x0020_1">
        <metadata id="CorelCorpID_0Corel-Layer" />
        <g id="_1421394342400">
          <g>
            <polygon fill="#343434" fill-rule="nonzero" points="392.07,0 383.5,29.11 383.5,873.74 392.07,882.29 784.13,650.54" />
            <polygon fill="#8C8C8C" fill-rule="nonzero" points="392.07,0 -0,650.54 392.07,882.29 392.07,472.33" />
            <polygon fill="#3C3C3B" fill-rule="nonzero" points="392.07,956.52 387.24,962.41 387.24,1263.28 392.07,1277.38 784.37,724.89" />
            <polygon fill="#8C8C8C" fill-rule="nonzero" points="392.07,1277.38 392.07,956.52 -0,724.89" />
            <polygon fill="#141414" fill-rule="nonzero" points="392.07,882.29 784.13,650.54 392.07,472.33" />
            <polygon fill="#393939" fill-rule="nonzero" points="0,650.54 392.07,882.29 392.07,472.33" />
          </g>
        </g>
      </g>
    </svg>
  </svg>
  <svg x="800" y="0" width="800" height="400" viewBox="0 0 32 32">
    <g fill="none" fill-rule="evenodd">
      <circle cx="16" cy="16" r="16" fill="#627EEA" />
      <g fill="#FFF" fill-rule="nonzero">
        <path fill-opacity=".602" d="M16.498 4v8.87l7.497 3.35z" />
        <path d="M16.498 4L9 16.22l7.498-3.35z" />
        <path fill-opacity=".602" d="M16.498 21.968v6.027L24 17.616z" />
        <path d="M16.498 27.995v-6.028L9 17.616z" />
        <path fill-opacity=".2" d="M16.498 20.573l7.497-4.353-7.497-3.348z" />
        <path fill-opacity=".602" d="M9 16.22l7.498 4.353v-7.701z" />
      </g>
    </g>
  </svg>
</svg>
